{
  "asset": {
    "version": "2.0",
    "generator": "THREE.GLTFExporter"
  },
  "scenes": [
    {
      "name": "Scene",
      "nodes": [
        2,
        6,
        7
      ]
    }
  ],
  "scene": 0,
  "nodes": [
    {
      "name": "arm2OBJcleanermaterialmergergles",
      "extras": {
        "name": "arm2.OBJ.cleaner.materialmerger.gles"
      }
    },
    {
      "matrix": [
        1,
        0,
        0,
        0,
        0,
        -2.220446049250313e-16,
        -1,
        0,
        0,
        1,
        -2.220446049250313e-16,
        0,
        0,
        -9.367723249499515e-31,
        4.218847493575595e-15,
        1
      ],
      "name": "Sketchfab_model",
      "extras": {
        "name": "Sketchfab_model"
      },
      "children": [
        0
      ]
    },
    {
      "matrix": [
        1,
        0,
        0,
        0,
        0,
        1,
        0,
        0,
        0,
        0,
        1,
        0,
        0,
        -0.8810758901539257,
        0.43034544174734934,
        1
      ],
      "name": "scene.gltf",
      "children": [
        1
      ]
    },
    {
      "matrix": [
        1,
        0,
        0,
        0,
        0,
        1,
        0,
        0,
        0,
        0,
        1,
        0,
        0.7361510529465347,
        -9.159339953157541e-16,
        13.759888773646828,
        1
      ],
      "name": "Object_2",
      "extras": {
        "name": "Object_2"
      },
      "mesh": 0
    },
    {
      "matrix": [
        1,
        0,
        0,
        0,
        0,
        1,
        0,
        0,
        0,
        0,
        1,
        0,
        -0.002682408779697082,
        -0.07566020207612142,
        -0.005827568985385431,
        1
      ],
      "name": "arm2OBJcleanermaterialmergergles",
      "extras": {
        "name": "arm2.OBJ.cleaner.materialmerger.gles"
      },
      "children": [
        3
      ]
    },
    {
      "matrix": [
        1,
        0,
        0,
        0,
        0,
        -2.220446049250313e-16,
        -1,
        0,
        0,
        1,
        -2.220446049250313e-16,
        0,
        0,
        -9.367723249499515e-31,
        4.218847493575595e-15,
        1
      ],
      "name": "Sketchfab_model",
      "extras": {
        "name": "Sketchfab_model"
      },
      "children": [
        4
      ]
    },
    {
      "matrix": [
        -1,
        0,
        0,
        0,
        0,
        1,
        0,
        0,
        0,
        0,
        1,
        0,
        0,
        -0.03680219457237044,
        0,
        1
      ],
      "name": "scene.gltf",
      "children": [
        5
      ]
    },
    {
      "matrix": [
        1,
        0,
        0,
        0,
        0,
        1,
        0,
        0,
        0,
        0,
        1,
        0,
        -1.5761289396756075,
        13.226204038282255,
        7.281021803042557,
        1
      ],
      "name": "AmbientLight"
    }
  ],
  "bufferViews": [
    {
      "buffer": 0,
      "byteOffset": 0,
      "byteLength": 77748,
      "target": 34962,
      "byteStride": 12
    },
    {
      "buffer": 0,
      "byteOffset": 77748,
      "byteLength": 77748,
      "target": 34962,
      "byteStride": 12
    },
    {
      "buffer": 0,
      "byteOffset": 155496,
      "byteLength": 103664,
      "target": 34962,
      "byteStride": 16
    },
    {
      "buffer": 0,
      "byteOffset": 259160,
      "byteLength": 51832,
      "target": 34962,
      "byteStride": 8
    },
    {
      "buffer": 0,
      "byteOffset": 310992,
      "byteLength": 146040,
      "target": 34963
    }
  ],
  "buffers": [
    {
      "byteLength": 457032,
      "uri": "data:application/octet-stream;base64,"
    }
  ],
  "accessors": [
    {
      "bufferView": 0,
      "componentType": 5126,
      "count": 6479,
      "max": [
        0.9999329447746277,
        0.9991199970245361,
        0.9775210618972778
      ],
      "min": [
        -0.9999911189079285,
        -0.9999833106994629,
        -0.9974039793014526
      ],
      "type": "VEC3"
    },
    {
      "bufferView": 1,
      "componentType": 5126,
      "count": 6479,
      "max": [
        1.803984522819519,
        3.4429850578308105,
        8.679247856140137
      ],
      "min": [
        -1.803984522819519,
        -3.4429850578308105,
        -8.679247856140137
      ],
      "type": "VEC3"
    },
    {
      "bufferView": 2,
      "componentType": 5126,
      "count": 6479,
      "max": [
        0.9999722242355347,
        0.9999817609786987,
        0.993599534034729,
        -1
      ],
      "min": [
        -0.9991121292114258,
        -0.9108819365501404,
        -0.9999008178710938,
        -1
      ],
      "type": "VEC4"
    },
    {
      "bufferView": 3,
      "componentType": 5126,
      "count": 6479,
      "max": [
        0.9678999781608582,
        0.9905499815940857
      ],
      "min": [
        0.05665000155568123,
        0.03531999886035919
      ],
      "type": "VEC2"
    },
    {
      "bufferView": 4,
      "componentType": 5125,
      "count": 36510,
      "max": [
        6478
      ],
      "min": [
        0
      ],
      "type": "SCALAR"
    }
  ],
  "materials": [
    {
      "pbrMetallicRoughness": {
        "baseColorFactor": [
          1,
          0.3231432091022285,
          0.06301001764564068,
          1
        ],
        "metallicFactor": 0,
        "roughnessFactor": 1
      },
      "extensions": {
        "KHR_materials_emissive_strength": {
          "emissiveStrength": 38.5
        }
      }
    }
  ],
  "meshes": [
    {
      "primitives": [
        {
          "mode": 4,
          "attributes": {
            "NORMAL": 0,
            "POSITION": 1,
            "TANGENT": 2,
            "TEXCOORD_0": 3
          },
          "indices": 4,
          "material": 0
        }
      ]
    }
  ],
  "extensionsUsed": [
    "KHR_materials_emissive_strength"
  ]
}