{
  "accessors": [
    {
      "bufferView": 2,
      "componentType": 5126,
      "count": 6479,
      "max": [
        2.6609129905700684,
        2.2669310569763184,
        23.723995208740234
      ],
      "min": [
        -0.947055995464325,
        -4.619039058685303,
        6.365499019622803
      ],
      "type": "VEC3"
    },
    {
      "bufferView": 2,
      "byteOffset": 77748,
      "componentType": 5126,
      "count": 6479,
      "max": [
        0.9999862313270569,
        0.9975647330284119,
        0.9920944571495056
      ],
      "min": [
        -0.9998985528945923,
        -0.9995051026344299,
        -0.9972771406173706
      ],
      "type": "VEC3"
    },
    {
      "bufferView": 3,
      "componentType": 5126,
      "count": 6479,
      "max": [
        0.9999723434448242,
        0.9999817609786987,
        0.9935995936393738,
        -1.0
      ],
      "min": [
        -0.9991121888160706,
        -0.9108819961547852,
        -0.9999008774757385,
        -1.0
      ],
      "type": "VEC4"
    },
    {
      "bufferView": 1,
      "componentType": 5126,
      "count": 6479,
      "max": [
        0.9678999781608582,
        0.9905499815940857
      ],
      "min": [
        0.05665000155568123,
        0.03531999886035919
      ],
      "type": "VEC2"
    },
    {
      "bufferView": 0,
      "componentType": 5125,
      "count": 36510,
      "type": "SCALAR"
    }
  ],
  "asset": {
    "extras": {
      "author": "Deftroy (https://sketchfab.com/deftroy)",
      "license": "SKETCHFAB Standard (https://sketchfab.com/licenses)",
      "source": "https://sketchfab.com/3d-models/human-male-arm-base-mesh-339678870e564316ab573ccf1253dc5e",
      "title": "Human Male Arm - base mesh"
    },
    "generator": "Sketchfab-12.63.0",
    "version": "2.0"
  },
  "bufferViews": [
    {
      "buffer": 0,
      "byteLength": 146040,
      "name": "floatBufferViews",
      "target": 34963
    },
    {
      "buffer": 0,
      "byteLength": 51832,
      "byteOffset": 146040,
      "byteStride": 8,
      "name": "floatBufferViews",
      "target": 34962
    },
    {
      "buffer": 0,
      "byteLength": 155496,
      "byteOffset": 197872,
      "byteStride": 12,
      "name": "floatBufferViews",
      "target": 34962
    },
    {
      "buffer": 0,
      "byteLength": 103664,
      "byteOffset": 353368,
      "byteStride": 16,
      "name": "floatBufferViews",
      "target": 34962
    }
  ],
  "buffers": [
    {
      "byteLength": 457032,
      "uri": "scene.bin"
    }
  ],
  "images": [
    {
      "uri": "textures/initialShadingGroup_baseColor.png"
    },
    {
      "uri": "textures/initialShadingGroup_normal.png"
    }
  ],
  "materials": [
    {
      "doubleSided": true,
      "name": "initialShadingGroup",
      "normalTexture": {
        "index": 1
      },
      "pbrMetallicRoughness": {
        "baseColorTexture": {
          "index": 0
        },
        "metallicFactor": 0.0,
        "roughnessFactor": 0.6114710365853658
      }
    }
  ],
  "meshes": [
    {
      "name": "Object_0",
      "primitives": [
        {
          "attributes": {
            "NORMAL": 1,
            "POSITION": 0,
            "TANGENT": 2,
            "TEXCOORD_0": 3
          },
          "indices": 4,
          "material": 0,
          "mode": 4
        }
      ]
    }
  ],
  "nodes": [
    {
      "children": [
        1
      ],
      "matrix": [
        1.0,
        0.0,
        0.0,
        0.0,
        0.0,
        -6.123232939436859e-17,
        -1.0,
        0.0,
        0.0,
        1.0,
        -6.123232939436859e-17,
        0.0,
        0.0,
        -9.367723249499515e-31,
        4.218847493575595e-15,
        1.0
      ],
      "name": "Sketchfab_model"
    },
    {
      "children": [
        2
      ],
      "name": "arm2.OBJ.cleaner.materialmerger.gles"
    },
    {
      "mesh": 0,
      "name": "Object_2"
    }
  ],
  "samplers": [
    {
      "magFilter": 9729,
      "minFilter": 9987,
      "wrapS": 10497,
      "wrapT": 10497
    }
  ],
  "scene": 0,
  "scenes": [
    {
      "name": "Sketchfab_Scene",
      "nodes": [
        0
      ]
    }
  ],
  "textures": [
    {
      "sampler": 0,
      "source": 0
    },
    {
      "sampler": 0,
      "source": 1
    }
  ]
}
