{
  "asset": {
    "version": "2.0",
    "generator": "THREE.GLTFExporter"
  },
  "scenes": [
    {
      "name": "Scene",
      "nodes": [
        3
      ]
    }
  ],
  "scene": 0,
  "nodes": [
    {
      "matrix": [
        -1,
        0,
        0,
        0,
        0,
        1,
        0,
        0,
        0,
        0,
        1,
        0,
        -1.5106069231849912,
        -1.1949488082254827,
        13.013619149834097,
        1
      ],
      "name": "Object_2",
      "extras": {
        "name": "Object_2"
      },
      "mesh": 0
    },
    {
      "name": "arm2OBJcleanermaterialmergergles",
      "extras": {
        "name": "arm2.OBJ.cleaner.materialmerger.gles"
      },
      "children": [
        0
      ]
    },
    {
      "matrix": [
        1,
        0,
        0,
        0,
        0,
        -2.220446049250313e-16,
        -1,
        0,
        0,
        1,
        -2.220446049250313e-16,
        0,
        0,
        -9.367723249499515e-31,
        4.218847493575595e-15,
        1
      ],
      "name": "Sketchfab_model",
      "extras": {
        "name": "Sketchfab_model"
      },
      "children": [
        1
      ]
    },
    {
      "matrix": [
        1,
        0,
        0,
        0,
        0,
        1,
        0,
        0,
        0,
        0,
        1,
        0,
        0,
        -0.8810758901539257,
        0.43034544174734934,
        1
      ],
      "name": "scene.gltf",
      "children": [
        2
      ]
    }
  ],
  "bufferViews": [
    {
      "buffer": 0,
      "byteOffset": 0,
      "byteLength": 77748,
      "target": 34962,
      "byteStride": 12
    },
    {
      "buffer": 0,
      "byteOffset": 77748,
      "byteLength": 77748,
      "target": 34962,
      "byteStride": 12
    },
    {
      "buffer": 0,
      "byteOffset": 155496,
      "byteLength": 103664,
      "target": 34962,
      "byteStride": 16
    },
    {
      "buffer": 0,
      "byteOffset": 259160,
      "byteLength": 51832,
      "target": 34962,
      "byteStride": 8
    },
    {
      "buffer": 0,
      "byteOffset": 310992,
      "byteLength": 146040,
      "target": 34963
    }
  ],
  "buffers": [
    {
      "byteLength": 457032,
      "uri": "data:application/octet-stream;base64,"
    }
  ],
  "accessors": [
    {
      "bufferView": 0,
      "componentType": 5126,
      "count": 6479,
      "max": [
        0.9999862313270569,
        0.9975647330284119,
        0.9920943379402161
      ],
      "min": [
        -0.9998985528945923,
        -0.9995050430297852,
        -0.9972771406173706
      ],
      "type": "VEC3"
    },
    {
      "bufferView": 1,
      "componentType": 5126,
      "count": 6479,
      "max": [
        1.803984522819519,
        3.4429850578308105,
        8.679247856140137
      ],
      "min": [
        -1.803984522819519,
        -3.4429850578308105,
        -8.679247856140137
      ],
      "type": "VEC3"
    },
    {
      "bufferView": 2,
      "componentType": 5126,
      "count": 6479,
      "max": [
        0.9999722242355347,
        0.9999817609786987,
        0.993599534034729,
        -1
      ],
      "min": [
        -0.9991121292114258,
        -0.9108819365501404,
        -0.9999008178710938,
        -1
      ],
      "type": "VEC4"
    },
    {
      "bufferView": 3,
      "componentType": 5126,
      "count": 6479,
      "max": [
        0.9678999781608582,
        0.9905499815940857
      ],
      "min": [
        0.05665000155568123,
        0.03531999886035919
      ],
      "type": "VEC2"
    },
    {
      "bufferView": 4,
      "componentType": 5125,
      "count": 36510,
      "max": [
        6478
      ],
      "min": [
        0
      ],
      "type": "SCALAR"
    }
  ],
  "materials": [
    {
      "pbrMetallicRoughness": {
        "metallicFactor": 0,
        "roughnessFactor": 0.6114710365853658
      },
      "doubleSided": true,
      "name": "initialShadingGroup"
    }
  ],
  "meshes": [
    {
      "primitives": [
        {
          "mode": 4,
          "attributes": {
            "NORMAL": 0,
            "POSITION": 1,
            "TANGENT": 2,
            "TEXCOORD_0": 3
          },
          "indices": 4,
          "material": 0
        }
      ]
    }
  ]
}